<svg xmlns="http://www.w3.org/2000/svg" viewBox="0 0 64 64" role="img" aria-labelledby="title">
  <title id="title">Monograma AS</title>
  <rect width="64" height="64" rx="12" fill="#087a52"/>
  <path fill="#fff" d="M13 45 25.6 17h5.8L44 45h-6.2l-2.7-6.4H21.7L19 45h-6Zm11-12h8.8l-4.4-10.5L24 33Zm21.8 12.5c-4.1 0-7.6-1.2-10.2-3.5l3-4.2c2.4 1.8 4.8 2.6 7.3 2.6 1.9 0 3-.6 3-1.8 0-1.1-.8-1.6-4.3-2.5-4.7-1.2-7.8-2.6-7.8-7.5 0-4.4 3.5-7.3 8.8-7.3 3.6 0 6.6 1 8.9 2.9l-2.7 4.4c-2.1-1.4-4.3-2.2-6.3-2.2-1.7 0-2.6.7-2.6 1.7 0 1.3.9 1.7 4.5 2.6 4.8 1.2 7.5 3 7.5 7.4 0 4.9-3.8 7.4-9.1 7.4Z"/>
</svg>
